# xmcd CD database file
#
# Track frame offsets:
#	150
#	10552
#	34392
#	65752
#	86915
#	112255
#	136750
#	161982
#	187570
#	222615
#	235577
#	255990
#
# Disc length: 3722 seconds
#
# Revision: 0
# Processed by: cddbd v1.4PL0 Copyright (c) Steve Scherf et al.
# Submitted via: CDex 1.51
#
DISCID=a30e880c
DTITLE=Saju - song for myself
DYEAR=1999
DGENRE=New Age
TTITLE0=intro
TTITLE1=jing jing
TTITLE2=I'm in you 
TTITLE3=aiya-laiya
TTITLE4=adios
TTITLE5=still searchin'
TTITLE6=searchin' for the dream
TTITLE7=love in vain
TTITLE8=running towards the west-missing
TTITLE9=sekeraso
TTITLE10=the fall
TTITLE11=deep inside
EXTD=YEAR: 1999
EXTT0=
EXTT1=
EXTT2=
EXTT3=
EXTT4=
EXTT5=
EXTT6=
EXTT7=
EXTT8=
EXTT9=
EXTT10=
EXTT11=
PLAYORDER=
